<?xml version="1.0" standalone="no"?>
<!DOCTYPE svg PUBLIC "-//W3C//DTD SVG 20010904//EN"
 "http://www.w3.org/TR/2001/REC-SVG-20010904/DTD/svg10.dtd">
<svg version="1.0" xmlns="http://www.w3.org/2000/svg"
 width="382.000000pt" height="383.000000pt" viewBox="0 0 382.000000 383.000000"
 preserveAspectRatio="xMidYMid meet">
<metadata>
Created by potrace 1.16, written by Peter Selinger 2001-2019
</metadata>
<g transform="translate(0.000000,383.000000) scale(0.100000,-0.100000)"
fill="#000" stroke="none">
<path d="M804 3412 c-16 -10 -34 -48 -34 -69 0 -41 26 -54 208 -107 l182 -52
105 -114 104 -115 1 -711 c0 -704 0 -712 21 -738 28 -35 70 -35 98 0 20 25 21
39 21 230 l0 204 55 0 54 0 3 -662 c3 -648 3 -664 24 -708 23 -51 71 -102 118
-128 45 -24 237 -24 282 0 47 26 95 77 118 128 21 44 21 60 24 708 l3 662 54
0 55 0 0 -204 c0 -191 1 -205 21 -230 28 -35 70 -35 98 0 21 26 21 34 21 738
l1 711 104 115 105 114 182 52 c181 52 208 66 208 105 0 32 -23 69 -46 75 -30
8 -340 -79 -365 -102 -10 -9 -19 -24 -19 -33 0 -15 -270 -322 -289 -329 -4 -1
-13 20 -20 48 -7 28 -30 77 -51 108 -136 204 -416 246 -610 92 -52 -41 -115
-137 -131 -200 -7 -28 -16 -49 -20 -48 -19 7 -289 314 -289 329 0 31 -40 51
-195 95 -163 45 -182 49 -201 36z m1248 -209 c68 -30 149 -111 181 -180 18
-39 22 -66 22 -143 0 -84 -3 -102 -28 -152 -55 -111 -147 -180 -273 -201 -167
-29 -342 83 -390 251 -21 71 -15 180 14 244 42 97 153 187 256 208 62 13 154
2 218 -27z m-460 -597 c84 -101 241 -160 371 -137 38 6 93 23 123 37 71 33
153 114 187 183 l27 55 0 -362 0 -362 -54 0 -54 0 -7 53 c-19 146 -126 237
-280 237 -153 0 -262 -92 -281 -237 l-7 -53 -53 0 -54 0 0 362 0 362 25 -50
c13 -27 39 -67 57 -88z"/>
<path d="M1807 2370 c-125 -32 -219 -134 -241 -262 -7 -36 -5 -38 19 -38 18 0
25 5 25 18 0 38 32 111 67 151 45 53 99 81 177 89 190 22 308 -51 351 -218 8
-34 16 -45 31 -45 16 0 18 6 16 35 -9 97 -93 209 -187 251 -56 25 -192 35
-258 19z"/>
</g>
</svg>
